<svg id="9a8e67b5-b4ca-4aab-90d3-5960fa098f54" data-name="Layer 1" xmlns="http://www.w3.org/2000/svg" width="350" height="50" viewBox="0 0 350 50"><title>sprite-social-media-icons</title><path d="M26.9,37.5V26h3.8l.6-4.4H26.9V18.8c0-1.3.4-2.1,2.2-2.1h2.4v-4a26.56,26.56,0,0,0-3.4-.1c-3.4,0-5.7,2.1-5.7,5.9v3.3H18.6v4.4h3.8V37.6l4.5-.1Z" fill="#ff7439"/><path d="M55.8,34.7s-.2,0,1.1.9a17.25,17.25,0,0,0,8.3,2c11.6,0,17.9-9.6,17.9-17.9V19s0-.1.6-.6a18.65,18.65,0,0,0,2.6-2.8,10.62,10.62,0,0,1-3.7,1,6.5,6.5,0,0,0,2.8-3.5,17.6,17.6,0,0,1-4,1.6A6.3,6.3,0,0,0,70.5,19a7.57,7.57,0,0,0,.1,1.5,17.42,17.42,0,0,1-12.9-6.6,7,7,0,0,0-.9,3.2,6.14,6.14,0,0,0,2.8,5.2,8.23,8.23,0,0,1-2.8-.7h0c0,3,2.2,5.6,3.7,5.9,0,0,1.5.2,1.2.4a4.89,4.89,0,0,1-1.3.1,2.51,2.51,0,0,1-1-.1s-.2,0,.2,1.2a5.81,5.81,0,0,0,4.1,3s1.3,0,.2.9a11.64,11.64,0,0,1-7,2.1,3.74,3.74,0,0,0-1.1-.4" fill="#ff7439"/><path d="M105.3,24.4a12.45,12.45,0,0,1,12.5-11.9,13,13,0,0,1,8.4,3.1c-1,1.2-2.1,2.2-3.1,3.3-2.9-2-6.9-2.5-9.8-.3-4,2.9-4.3,9.5-.4,12.5,3.8,3.5,11.1,1.7,12.1-3.5-2.4,0-4.8,0-7.2-.1V23.2h12a14.9,14.9,0,0,1-2.2,9.7c-3.1,4.4-9.4,5.6-14.2,3.8a12.53,12.53,0,0,1-8.1-12.3" fill="#ff7439"/><path d="M137.7,19.7h3.5v3.5h3.5v3.5h-3.5v3.5h-3.5V26.7h-3.5V23.2h3.5V19.7" fill="#ff7439"/><path d="M242.4,17.9s-.4-2.5-1.4-3.5a5.79,5.79,0,0,0-3.5-1.6c-4.9-.4-12.4-.4-12.4-.4s-7.4,0-12.4.4a5,5,0,0,0-3.5,1.6c-1,1-1.4,3.5-1.4,3.5a45.93,45.93,0,0,0-.4,5.7v2.7a48.11,48.11,0,0,0,.4,5.7s.4,2.5,1.4,3.5c1.3,1.4,3.1,1.3,3.9,1.6,2.8.3,12,.4,12,.4s7.4,0,12.4-.4a5,5,0,0,0,3.5-1.6c1-1,1.4-3.5,1.4-3.5a45.93,45.93,0,0,0,.4-5.7V23.7C242.7,20.8,242.4,17.9,242.4,17.9Zm-21,11.8v-10l9.6,4.9Z" fill="#ff7439"/><path d="M275,12.5a12.46,12.46,0,0,0-12.4,12.4A12.21,12.21,0,0,0,270,36.2a8.63,8.63,0,0,1,.2-2.8c.3-1,1.6-6.7,1.6-6.7a4.85,4.85,0,0,1-.4-2c0-1.9,1.1-3.2,2.4-3.2a1.68,1.68,0,0,1,1.7,1.9,18.32,18.32,0,0,1-1.2,4.4,1.92,1.92,0,0,0,2,2.4c2.4,0,3.9-3,3.9-6.6,0-2.7-1.9-4.8-5.1-4.8a5.83,5.83,0,0,0-6.1,5.9,3.79,3.79,0,0,0,.8,2.4c.3.3.3.4.2.7s-.2.8-.3,1a.51.51,0,0,1-.6.4c-1.8-.7-2.6-2.6-2.6-4.7,0-3.5,3-7.8,8.9-7.8,4.7,0,7.9,3.5,7.9,7.2,0,4.9-2.7,8.5-6.7,8.5a3.37,3.37,0,0,1-3-1.6s-.7,2.8-.9,3.5a13.64,13.64,0,0,1-1.2,2.7,10.6,10.6,0,0,0,3.5.5,12.5,12.5,0,0,0,0-25Z" fill="#ff7439"/><path d="M325,14.7c3.3,0,3.7,0,5.1.1a12.43,12.43,0,0,1,2.3.4,7.46,7.46,0,0,1,1.5.9,3.77,3.77,0,0,1,.9,1.5,7.29,7.29,0,0,1,.4,2.3c.1,1.3.1,1.7.1,5.1s0,3.7-.1,5.1a12.43,12.43,0,0,1-.4,2.3,7.46,7.46,0,0,1-.9,1.5,3.77,3.77,0,0,1-1.5.9,7.29,7.29,0,0,1-2.3.4c-1.3.1-1.7.1-5.1.1s-3.7,0-5.1-.1a12.43,12.43,0,0,1-2.3-.4,7.46,7.46,0,0,1-1.5-.9,3.77,3.77,0,0,1-.9-1.5,7.29,7.29,0,0,1-.4-2.3c-.1-1.3-.1-1.7-.1-5.1s0-3.7.1-5.1a12.43,12.43,0,0,1,.4-2.3,7.46,7.46,0,0,1,.9-1.5,3.77,3.77,0,0,1,1.5-.9,7.29,7.29,0,0,1,2.3-.4c1.3-.1,1.7-.1,5.1-.1m0-2.2c-3.4,0-3.8,0-5.1.1a12.17,12.17,0,0,0-3.1.6,5.11,5.11,0,0,0-2.1,1.5,9.12,9.12,0,0,0-1.5,2.1,10.58,10.58,0,0,0-.6,3.1c-.1,1.4-.1,1.8-.1,5.2s0,3.8.1,5.1a12.17,12.17,0,0,0,.6,3.1,4.53,4.53,0,0,0,1.5,2.1,9.12,9.12,0,0,0,2.1,1.5,10.58,10.58,0,0,0,3.1.6c1.3.1,1.7.1,5.1.1s3.8,0,5.1-.1a12.17,12.17,0,0,0,3.1-.6,5.11,5.11,0,0,0,2.1-1.5,9.12,9.12,0,0,0,1.5-2.1,10.58,10.58,0,0,0,.6-3.1c.1-1.3.1-1.7.1-5.1s0-3.8-.1-5.1a12.17,12.17,0,0,0-.6-3.1,5.11,5.11,0,0,0-1.5-2.1,13.66,13.66,0,0,0-2.1-1.5,10.58,10.58,0,0,0-3.1-.6,27.94,27.94,0,0,0-5.1-.2Z" fill="#ff7439"/><path d="M325,18.6a6.4,6.4,0,1,0,6.4,6.4A6.38,6.38,0,0,0,325,18.6Zm0,10.6a4.2,4.2,0,1,1,4.2-4.2A4.29,4.29,0,0,1,325,29.2Z" fill="#ff7439"/><circle cx="331.6" cy="18.3" r="1.5" fill="#ff7439"/><path d="M181.3,20.4a5.5,5.5,0,0,0-4.9,2.7h-.1V20.8h-5V37.5h5.2V29.2c0-2.2.4-4.3,3.1-4.3s2.7,2.5,2.7,4.4v8.1h5.2V28.2C187.5,23.8,186.6,20.4,181.3,20.4Z" fill="#ff7439"/><circle cx="165.5" cy="15.5" r="3" fill="#ff7439"/><rect x="162.9" y="20.8" width="5.2" height="16.7" fill="#ff7439"/></svg>